<svg width="10" height="21" viewBox="0 0 10 21" fill="none" xmlns="http://www.w3.org/2000/svg">
<path d="M0.759998 16.2535C0.184817 16.4947 -0.0563882 17.1813 0.203371 17.7379L1.11253 19.649C1.37229 20.1869 2.00313 20.4282 2.55976 20.1869C4.13687 19.5189 5.49132 18.6469 6.56747 17.5893C7.88482 16.3463 8.77542 14.9176 9.25783 13.3405C9.74024 11.7447 10 9.57402 10 6.80944L10 1.1133C10 0.501007 9.49903 4.20055e-05 8.88674 4.2059e-05L1.59494 4.26965e-05C0.982647 4.275e-05 0.481683 0.501008 0.481683 1.1133L0.481684 8.40511C0.481684 9.01758 0.982648 9.51836 1.59494 9.51836L5.08313 9.51836C5.04602 11.3925 4.60072 12.8952 3.78434 14.0272C3.11638 14.936 2.11446 15.6782 0.759998 16.2535Z" fill="white"/>
</svg>
