<svg width="6" height="13" viewBox="0 0 6 13" fill="none" xmlns="http://www.w3.org/2000/svg">
<path d="M0.401136 10.4283C0.0519111 10.583 -0.0944249 11.0235 0.0631765 11.3806L0.615178 12.5947C0.772892 12.94 1.15591 13.0947 1.49387 12.94C2.44016 12.5114 3.25137 11.9519 3.91592 11.2853C4.71587 10.4758 5.26775 9.55914 5.56076 8.54728C5.85366 7.54744 6 6.15452 6 4.36887L6 0.714257C6 0.321415 5.69584 2.65908e-08 5.32408 5.90907e-08L0.896809 4.46135e-07C0.525054 4.78635e-07 0.22089 0.321415 0.22089 0.714258L0.220891 5.39264C0.220891 5.7856 0.525054 6.1069 0.89681 6.1069L3.02596 6.1069C3.00342 7.30935 2.73294 8.27348 2.23738 8.99976C1.83183 9.58295 1.2235 10.0591 0.401136 10.4283Z" fill="white"/>
</svg>
