<svg width="13" height="19" viewBox="0 0 13 19" fill="none" xmlns="http://www.w3.org/2000/svg">
<path d="M7.3634 9.78788C10.0619 9.78788 12.2573 7.59246 12.2573 4.89394C12.2573 2.19542 10.0619 0 7.3634 0C7.35286 0 7.34238 0.000172727 7.33196 0.000575758H3.33425C3.33384 0.000575758 3.3335 0.000518182 3.33315 0.000518182C2.8562 0.000518182 2.46952 0.387197 2.46952 0.864155V0.864212V8.92424V11.5152H1.60582C1.12887 11.5152 0.742188 11.9018 0.742188 12.3788C0.742188 12.8557 1.12887 13.2424 1.60582 13.2424H2.46946V18.1364C2.46946 18.6133 2.85614 19 3.3331 19C3.81005 19 4.19673 18.6133 4.19673 18.1364V13.2424H7.3634C7.84036 13.2424 8.22704 12.8557 8.22704 12.3788C8.22704 11.9018 7.84036 11.5152 7.3634 11.5152H4.19673V9.78788H7.3634ZM7.3634 1.72785C7.37273 1.72785 7.38205 1.72768 7.39127 1.72739C9.12464 1.74236 10.5301 3.15711 10.5301 4.89394C10.5301 6.64004 9.1095 8.06061 7.3634 8.06061H4.19673V1.72785H7.3634Z" fill="#8C0014"/>
</svg>
