<svg width="6" height="13" viewBox="0 0 6 13" fill="none" xmlns="http://www.w3.org/2000/svg">
<path d="M5.59886 2.57173C5.94809 2.41697 6.09442 1.97651 5.93682 1.61938L5.38482 0.405266C5.22711 0.0600421 4.84409 -0.0947136 4.50613 0.0600421C3.55984 0.488596 2.74863 1.0481 2.08408 1.71474C1.28413 2.52423 0.732246 3.44086 0.439235 4.45272C0.146337 5.45256 0 6.84548 0 8.63113V12.2857C0 12.6786 0.304164 13 0.675919 13H5.10319C5.47495 13 5.77911 12.6786 5.77911 12.2857V7.60736C5.77911 7.2144 5.47495 6.8931 5.10319 6.8931H2.97404C2.99657 5.69065 3.26706 4.72652 3.76262 4.00024C4.16817 3.41705 4.7765 2.94088 5.59886 2.57173Z" fill="white"/>
</svg>
