<svg width="48" height="48" viewBox="0 0 48 48" fill="none" xmlns="http://www.w3.org/2000/svg">
<path d="M34.7717 21.4807L33.0871 21.1949C32.9116 20.6284 32.686 20.0819 32.4103 19.5605L33.403 18.1717C33.8241 17.5801 33.7589 16.7729 33.2425 16.2615L31.7485 14.7675C31.4677 14.4867 31.0967 14.3313 30.7007 14.3313C30.3898 14.3313 30.094 14.4266 29.8433 14.6071L28.4496 15.5997C27.9081 15.314 27.3416 15.0783 26.755 14.9029L26.4742 13.2384C26.3539 12.5214 25.7372 12 25.0102 12H22.8995C22.1726 12 21.5559 12.5214 21.4356 13.2384L21.1448 14.943C20.5832 15.1184 20.0368 15.3491 19.5154 15.6298L18.1366 14.6371C17.8859 14.4567 17.5851 14.3614 17.2743 14.3614C16.8782 14.3614 16.5022 14.5168 16.2264 14.7976L14.7274 16.2916C14.216 16.803 14.1458 17.6102 14.567 18.2018L15.5697 19.6106C15.2939 20.137 15.0733 20.6835 14.9029 21.2501L13.2384 21.5308C12.5214 21.6511 12 22.2678 12 22.9948V25.1055C12 25.8325 12.5214 26.4491 13.2384 26.5695L14.943 26.8602C15.1184 27.4218 15.3491 27.9682 15.6298 28.4897L14.6422 29.8634C14.221 30.455 14.2862 31.2622 14.8026 31.7736L16.2966 33.2676C16.5774 33.5484 16.9484 33.7038 17.3445 33.7038C17.6553 33.7038 17.9511 33.6085 18.2018 33.428L19.6106 32.4253C20.117 32.691 20.6484 32.9066 21.1949 33.0771L21.4757 34.7616C21.596 35.4786 22.2127 36 22.9396 36H25.0554C25.7823 36 26.399 35.4786 26.5193 34.7616L26.8051 33.0771C27.3716 32.9016 27.9181 32.676 28.4395 32.4003L29.8283 33.3929C30.079 33.5734 30.3798 33.6687 30.6906 33.6687C31.0867 33.6687 31.4577 33.5133 31.7385 33.2325L33.2325 31.7385C33.7439 31.2271 33.8141 30.4199 33.3929 29.8283L32.4003 28.4345C32.676 27.9081 32.9066 27.3616 33.0771 26.8001L34.7617 26.5193C35.4786 26.399 36 25.7823 36 25.0554V22.9446C36.01 22.2177 35.4886 21.601 34.7717 21.4807ZM34.6564 25.0554C34.6564 25.1205 34.6112 25.1757 34.5461 25.1857L32.4404 25.5367C32.1746 25.5818 31.9641 25.7773 31.8989 26.033C31.7084 26.77 31.4176 27.4769 31.0265 28.1337C30.8912 28.3643 30.9012 28.6501 31.0566 28.8707L32.295 30.6154C32.3301 30.6656 32.3251 30.7408 32.2799 30.7859L30.7859 32.2799C30.7508 32.315 30.7157 32.32 30.6906 32.32C30.6605 32.32 30.6355 32.31 30.6154 32.295L28.8757 31.0566C28.6601 30.9012 28.3693 30.8912 28.1387 31.0265C27.4819 31.4176 26.775 31.7084 26.038 31.8989C25.7773 31.9641 25.5818 32.1797 25.5417 32.4404L25.1857 34.5461C25.1757 34.6112 25.1205 34.6564 25.0554 34.6564H22.9446C22.8795 34.6564 22.8243 34.6112 22.8143 34.5461L22.4633 32.4404C22.4182 32.1746 22.2227 31.9641 21.967 31.8989C21.2501 31.7134 20.5582 31.4276 19.9114 31.0566C19.8061 30.9965 19.6858 30.9664 19.5705 30.9664C19.4351 30.9664 19.2948 31.0065 19.1794 31.0917L17.4247 32.3401C17.3996 32.3551 17.3746 32.3652 17.3495 32.3652C17.3294 32.3652 17.2893 32.3601 17.2542 32.325L15.7602 30.831C15.7151 30.7859 15.71 30.7157 15.7451 30.6605L16.9785 28.9309C17.1339 28.7103 17.1439 28.4195 17.0086 28.1888C16.6175 27.5371 16.3167 26.8302 16.1262 26.0932C16.056 25.8375 15.8454 25.6419 15.5847 25.5968L13.464 25.2358C13.3988 25.2258 13.3537 25.1707 13.3537 25.1055V22.9948C13.3537 22.9296 13.3988 22.8745 13.464 22.8644L15.5546 22.5135C15.8203 22.4684 16.0359 22.2728 16.1011 22.0121C16.2866 21.2751 16.5724 20.5632 16.9584 19.9064C17.0938 19.6758 17.0788 19.39 16.9233 19.1744L15.675 17.4197C15.6399 17.3695 15.6449 17.2943 15.69 17.2492L17.184 15.7552C17.2191 15.7201 17.2542 15.7151 17.2793 15.7151C17.3094 15.7151 17.3344 15.7251 17.3545 15.7401L19.0842 16.9735C19.3048 17.1289 19.5956 17.1389 19.8262 17.0036C20.478 16.6125 21.1849 16.3117 21.9219 16.1212C22.1776 16.051 22.3731 15.8404 22.4182 15.5797L22.7792 13.459C22.7892 13.3938 22.8444 13.3487 22.9095 13.3487H25.0203C25.0854 13.3487 25.1406 13.3938 25.1506 13.459L25.5016 15.5496C25.5467 15.8153 25.7422 16.0309 26.0029 16.0961C26.76 16.2866 27.4819 16.5824 28.1538 16.9785C28.3844 17.1139 28.6702 17.1038 28.8907 16.9484L30.6204 15.705C30.6455 15.69 30.6706 15.68 30.6956 15.68C30.7157 15.68 30.7558 15.685 30.7909 15.7201L32.2849 17.2141C32.3301 17.2592 32.3351 17.3294 32.3 17.3846L31.0616 19.1243C30.9062 19.3399 30.8962 19.6307 31.0315 19.8613C31.4226 20.5181 31.7134 21.225 31.9039 21.962C31.9691 22.2227 32.1847 22.4182 32.4454 22.4583L34.5511 22.8143C34.6163 22.8243 34.6614 22.8795 34.6614 22.9446V25.0554H34.6564Z" fill="#8C0014"/>
<path d="M24.0023 18.8175C21.1445 18.8175 18.8232 21.1388 18.8232 23.9966C18.8232 26.8543 21.1445 29.1756 24.0023 29.1756C26.86 29.1756 29.1813 26.8543 29.1813 23.9966C29.1813 21.1388 26.86 18.8175 24.0023 18.8175ZM24.0023 27.8219C21.8916 27.8219 20.1769 26.1073 20.1769 23.9966C20.1769 21.8858 21.8916 20.1712 24.0023 20.1712C26.113 20.1712 27.8276 21.8858 27.8276 23.9966C27.8276 26.1073 26.113 27.8219 24.0023 27.8219Z" fill="#8C0014"/>
</svg>
