<svg width="10" height="21" viewBox="0 0 10 21" fill="none" xmlns="http://www.w3.org/2000/svg">
<path d="M9.33961 4.02701C9.91479 3.78581 10.1558 3.0993 9.89624 2.54268L8.98708 0.650332C8.72732 0.112259 8.09648 -0.128945 7.53985 0.112259C5.9813 0.780212 4.64521 1.65226 3.55069 2.6913C2.23316 3.95298 1.32419 5.38166 0.841593 6.95877C0.359184 8.51714 0.118164 10.6882 0.118164 13.4713V19.1674C0.118164 19.7797 0.619128 20.2807 1.23142 20.2807H8.52323C9.13552 20.2807 9.63648 19.7797 9.63648 19.1674V11.8756C9.63648 11.2632 9.13552 10.7624 8.52323 10.7624H5.01648C5.05359 8.88822 5.49907 7.38552 6.31527 6.25352C6.98323 5.34455 7.98515 4.60238 9.33961 4.02701Z" fill="white"/>
</svg>
